<?xml version="1.0" standalone="no"?>
<!DOCTYPE svg PUBLIC "-//W3C//DTD SVG 20010904//EN"
 "http://www.w3.org/TR/2001/REC-SVG-20010904/DTD/svg10.dtd">
<svg version="1.0" xmlns="http://www.w3.org/2000/svg"
 width="120.000000pt" height="120.000000pt" viewBox="0 0 120.000000 120.000000"
 preserveAspectRatio="xMidYMid meet">
<metadata>
Created by potrace 1.16, written by Peter Selinger 2001-2019
</metadata>
<g transform="translate(0.000000,120.000000) scale(0.100000,-0.100000)"
fill="#000000" stroke="none">
<path d="M580 1130 c13 -8 12 -10 -3 -10 -14 0 -17 -5 -12 -21 5 -13 3 -19 -3
-15 -5 3 -12 -1 -16 -9 -3 -8 -13 -15 -21 -15 -22 0 -87 -45 -77 -54 4 -4 0
-7 -8 -5 -24 4 -63 -20 -87 -54 l-23 -32 0 32 c0 23 12 46 43 82 23 27 49 50
57 51 11 1 11 3 2 7 -6 2 -9 9 -6 15 4 6 -2 6 -14 -1 -12 -6 -20 -17 -18 -24
1 -6 1 -9 -1 -4 -10 16 -28 4 -89 -58 -90 -91 -108 -158 -83 -304 9 -49 9 -66
0 -69 -15 -5 -14 -82 3 -134 8 -24 17 -65 20 -92 3 -26 22 -83 41 -126 22 -48
35 -93 35 -118 0 -32 10 -55 43 -104 l43 -63 221 -3 220 -3 11 57 c16 79 16
82 -18 89 -45 10 -41 42 6 51 34 6 36 8 30 38 -4 17 -14 37 -23 43 -16 12 -16
15 1 50 10 21 20 63 21 93 2 30 1 44 -2 30 -8 -37 -25 -42 -53 -16 -40 38 -64
46 -124 42 -31 -2 -56 0 -56 5 0 5 7 9 16 9 9 0 14 6 12 12 -3 9 -32 13 -93
13 -58 0 -90 4 -92 12 -2 6 5 14 16 18 25 8 28 25 5 25 -9 0 -29 -13 -44 -30
-15 -16 -39 -34 -52 -39 -33 -12 -126 -12 -134 0 -3 6 -13 38 -21 72 -19 80
-6 234 16 198 4 -6 1 -39 -7 -72 -17 -68 -12 -79 41 -79 16 0 45 -8 64 -17 30
-14 39 -14 56 -3 12 7 40 14 63 15 36 3 42 1 37 -12 -4 -10 -2 -14 4 -10 6 4
13 20 17 37 7 39 31 48 59 23 27 -23 71 -43 97 -43 33 0 70 22 70 43 0 15 5
18 21 14 33 -9 46 33 25 80 l-17 38 -85 -3 c-47 -1 -104 -6 -127 -11 -24 -6
-48 -6 -57 -1 -9 5 -27 6 -39 3 -14 -3 -30 1 -43 13 -12 11 -18 13 -14 6 6
-10 3 -13 -9 -10 -13 2 -19 15 -22 46 -2 24 0 41 5 38 4 -2 7 7 5 22 -7 48 10
77 48 78 32 1 127 14 212 29 73 13 103 -14 137 -126 6 -20 19 -45 30 -57 11
-11 23 -42 29 -69 l9 -48 2 40 c11 176 -31 257 -179 353 -50 32 -67 39 -78 30
-7 -6 -16 -8 -20 -4 -3 3 0 6 8 6 11 0 11 2 -1 10 -8 5 -22 10 -30 10 -13 0
-13 -1 0 -10z"/>
</g>
</svg>
